<svg xmlns="http://www.w3.org/2000/svg" width="800" height="600" viewBox="0 0 800 600" fill="none">
  <!-- Low-contrast decorative cables: sky, emerald, amber, violet, rose  electricity / eco palette -->
  <path d="M-20 120 C 140 40 280 200 420 95 S 700 30 820 140" stroke="#38bdf8" stroke-width="2" stroke-linecap="round" opacity="0.14"/>
  <path d="M0 280 Q 200 180 400 260 T 800 220" stroke="#34d399" stroke-width="1.75" stroke-linecap="round" opacity="0.12"/>
  <path d="M40 420 C 200 320 360 520 560 380 S 760 280 840 400" stroke="#fbbf24" stroke-width="1.5" stroke-linecap="round" opacity="0.11"/>
  <path d="M-40 520 C 120 380 300 580 480 440 S 680 360 820 480" stroke="#a78bfa" stroke-width="1.5" stroke-linecap="round" opacity="0.1"/>
  <path d="M100 -20 C 180 120 60 240 200 320 S 420 200 520 360" stroke="#f472b6" stroke-width="1.25" stroke-linecap="round" opacity="0.09"/>
  <path d="M600 0 C 520 160 700 280 640 420 S 480 520 720 600" stroke="#22d3ee" stroke-width="1.5" stroke-linecap="round" opacity="0.1"/>
  <path d="M300 600 C 380 480 220 400 320 260 S 500 100 440 -20" stroke="#4ade80" stroke-width="1.25" stroke-linecap="round" opacity="0.11"/>
  <path d="M780 80 C 640 200 760 340 600 460" stroke="#fcd34d" stroke-width="1.5" stroke-linecap="round" opacity="0.09"/>
  <circle cx="420" cy="95" r="3" fill="#38bdf8" opacity="0.2"/>
  <circle cx="400" cy="260" r="2.5" fill="#34d399" opacity="0.18"/>
  <circle cx="560" cy="380" r="2.5" fill="#fbbf24" opacity="0.16"/>
</svg>
